<svg width="150" height="150" fill="none" xmlns="http://www.w3.org/2000/svg">
  <g clip-path="url(#a)">
    <path d="M77.8875 20.3625c-4.1625-.1125-9.0375 9.825-8.85 18.675.0375 2.7.9 8.175 2.1375 15.0375-7.8375 8.1-16.9125 16.425-16.9125 27.3375-.1125 10.0125 6 22.7625 20.5125 22.6125 2.2125 0 4.2375-.3 6-.75 1.3125 7.275 2.2125 13.013 2.2125 15.675.0375 10.463-13.6875 11.475-14.325 5.475 2.8875-.112 5.2125-2.4 5.2125-5.25 0-2.887-2.4-5.287-5.4-5.287-1.65 0-3.1125.712-4.0875 1.837-.0375.038-.0375.038-.075.075-.225.225-.4125.525-.6.825-.6 1.05-1.0125 2.513-1.0125 4.65 0 8.738 22.125 14.4 22.125-2.887.0375-2.325-.975-8.213-2.4-15.638 15.7875-5.7 11.8125-29.1375-2.7-29.25-1.125 0-2.2125.15-3.2625.4125-.825-3.975-1.6125-7.8375-2.325-11.4 5.5125-5.4 10.35-12.45 10.2375-25.35-.1125-9.2625-3.1875-16.6875-6.4875-16.8Zm.975 8.9625c1.875-.1875 3.375 1.575 3.375 5.4.15 6.6-4.4625 12.375-9.975 18.1875-.525-3.1875-.8625-5.7375-.9-7.275.15-10.3125 4.3875-16.0125 7.5-16.3125Zm-5.925 34.2375c.675 3.45 1.3875 7.0875 2.1375 10.7625-9.6 3.4125-14.2125 16.8375-.6 22.8375-8.325-7.0875-4.2375-15.45 1.7625-16.9125 1.5 7.5375 2.9625 14.925 4.1625 21.375-1.6125.563-3.4875.9-5.7.9-5.5125 0-16.5-3.4875-16.5-16.7625.0375-11.1 7.725-15.6 14.7375-22.2ZM77.625 80.025h.75c10.0125 0 13.8 15.9 3.6 20.963-1.275-6.3755-2.8125-13.688-4.35-20.963Z" fill="#00E973"/>
    <path d="M75 147.75c40.179 0 72.75-32.571 72.75-72.75 0-40.1787-32.571-72.75-72.75-72.75C34.8213 2.25 2.25 34.8213 2.25 75c0 40.179 32.5713 72.75 72.75 72.75Z" stroke="#00E973" stroke-width="3"/>
  </g>
  <defs>
    <clipPath id="a">
      <path fill="#fff" d="M0 0h150v150H0z"/>
    </clipPath>
  </defs>
</svg>
