<svg width="150" height="150" fill="none" xmlns="http://www.w3.org/2000/svg">
  <path fill-rule="evenodd" clip-rule="evenodd" d="M90.15 25.125c2.5875.0375 4.2 1.1625 6.525 1.65 3.825.75 8.025.15 10.687 1.9875.9 1.275 1.801 2.55 2.738 3.7875 1.013.3 2.062.6 3.075.9 3.15 1.9125 3.562 5.475 4.912 9.225.638 1.9125 3.638 5.25 3.076 7.0875-1.875 4.125-7.613 6.075-8.888 10.35.862.7125 1.05 1.275 2.55 1.425.563-.825 1.687-2.0625 2.887-1.65 8.963 1.0875-3.075 16.575-6.375 7.9875-.487-2.025.825-2.8875 0-4.35-.637-.3-1.349-.6-1.987-.9-2.925 2.8125-6.45 5.85-8.513 9.45.9 1.1625 2.063 2.175 3.451 2.8875 1.012-.7125 1.987-2.475 4.012-1.65 6.187 2.7-1.162 15.45-7.988 7.8.076-1.6875.825-2.1375 1.425-3.2625-.637-1.2375-1.8745-2.1-3.0745-2.7375-2.175.7125-6.8625 8.0625-7.9875 10.35 1.0125.8625 1.9125 1.8 3.2625 2.3625 1.3125-.8625 1.5-1.9875 3.6375-2.175 6.975 3.2625.1875 14.475-6.375 9.6-.4875-1.6875.3-3.2625 0-4.5375-.45-.9-1.35-1.35-2.175-1.8-.3.1125-.6.225-.9.375-.975 2.9625-3.3 6.9-5.4375 8.8875-13.5375-.7125-21.8625 7.462-27.75 15.037-1.2375 1.575-8.1375 11.325-9.975 10.875-5.6625-4.725-11.3625-9.449-17.025-14.137v-.9c3.75-3.225 6.7875-7.8 9.7875-11.8125 3.375-4.4625 7.2-7.9875 9.45-13.8.5625-2.475 1.0875-4.95 1.65-7.425.375-2.4-.9375-6.0375.1875-7.6125 2.2875-1.875 4.575-3.75 6.9-5.625-.225-.6375-.15-.5625-.7125-.9-1.2375-.3375-1.9125.975-3.7875 1.0875-.9375-.45-1.725-.8625-2.175-1.8-3.6-5.85 6.9375-11.2875 9.225-6 .45 1.7625-.75 2.2875-1.0875 3.7875.375.3.7125.6 1.0875.9.3.075.6.1125.9.1875 3.0375-2.8875 6.525-5.5125 9.075-8.8875v-.5625c-.5625-.4125-1.0875-.8625-1.65-1.275-1.65.45-1.5375 1.5375-3.45 1.8-.7875-.7125-1.575-1.425-2.3625-2.175-3.225-6.225 7.2-11.475 9.225-6 .3375 1.65-.75 2.1-1.0875 3.6375.6.6 1.1625 1.0125 1.9875 1.425 1.875-1.0875 7.575-7.4625 8.175-9.6-.4875-.3-.975-.6-1.425-.9-1.425.5625-1.5375 1.6875-3.45 1.425-5.7-3.75-1.575-11.2125 5.8125-9.075.375.4125.7125.8625 1.0875 1.275-.0375 1.95-.75 2.1375-1.0875 3.6375.1875.225.375.4875.5625.7125 2.1.3375 7.4625-8.475 9.375-10.35Z" fill="#00E973"/>
  <path d="M75 147.375c40.179 0 72.75-32.571 72.75-72.75 0-40.1787-32.571-72.75-72.75-72.75-40.1787 0-72.75 32.5713-72.75 72.75 0 40.179 32.5713 72.75 72.75 72.75Z" stroke="#00E973" stroke-width="3" stroke-miterlimit="10"/>
</svg>
