<svg width="150" height="150" fill="none" xmlns="http://www.w3.org/2000/svg">
  <g clip-path="url(#a)">
    <path d="M81.6 110.925c-.6375 0-1.3125-.188-1.875-.488l-32.7-19.3495c-.9-.525-1.3875-1.35-1.3875-2.2875V61.1625c0-.9.525-1.7625 1.3875-2.2875l32.7-19.35c.975-.525 2.2125-.6375 3.2625-.1875 1.125.45 1.8375 1.3875 1.875 2.4375v66.337c0 1.013-.675 1.988-1.7625 2.438-.4875.262-1.0125.375-1.5.375Zm-29.475-23.55 26.1375 15.487V47.1375L52.125 62.625v24.75Z" fill="#00E973"/>
    <path d="M48.8625 91.6124H35.775c-5.4 0-9.825-3.7125-9.825-8.2875v-16.575c0-4.575 4.3875-8.2875 9.825-8.2875h13.0875c1.8 0 3.2625 1.2375 3.2625 2.775v27.6375c0 1.4625-1.425 2.7375-3.2625 2.7375Zm-13.05-27.675c-1.8 0-3.2625 1.2375-3.2625 2.775v16.575c0 1.5375 1.4625 2.775 3.2625 2.775h9.825v-22.125h-9.825ZM88.425 80.925c1.8375-1.5 2.925-3.6 2.925-5.925 0-2.175-1.0125-4.3125-2.8875-5.85l4.65-3.9375C99.525 70.575 99.525 79.35 93.15 84.75M109.312 101.212c-.9 0-1.725-.3-2.325-.787-1.275-1.0875-1.275-2.8125-.037-3.9l.037-.0375c13.988-11.85 13.988-31.0875 0-42.9375-1.275-1.0875-1.275-2.85 0-3.9375s3.375-1.0875 4.65 0c16.575 14.025 16.575 36.75 0 50.7755-.637.525-1.462.824-2.325.824Z" fill="#00E973"/>
    <path d="M100.05 93.3749c-.8626 0-1.6875-.3-2.2875-.7875-1.125-1.125-1.05-2.7375.1875-3.75 8.925-7.5375 8.925-19.8 0-27.3375-1.1625-1.1625-1.0125-2.8875.375-3.9 1.2375-.9 3-.9 4.275 0 11.475 9.7125 11.475 25.425 0 35.1375-.75.4875-1.65.7125-2.55.6375Z" fill="#00E973"/>
    <path d="M75 147.787c40.179 0 72.75-32.571 72.75-72.7495 0-40.1787-32.571-72.75002-72.75-72.75002-40.1787 0-72.75 32.57132-72.75 72.75002 0 40.1785 32.5713 72.7495 72.75 72.7495Z" stroke="#00E973" stroke-width="3" stroke-miterlimit="10"/>
  </g>
  <defs>
    <clipPath id="a">
      <path fill="#fff" d="M0 0h150v150H0z"/>
    </clipPath>
  </defs>
</svg>
