<?xml version="1.0" encoding="utf-8"?>
<!-- Generator: Adobe Illustrator 27.0.1, SVG Export Plug-In . SVG Version: 6.00 Build 0)  -->
<svg version="1.1" id="Calque_1" xmlns="http://www.w3.org/2000/svg" xmlns:xlink="http://www.w3.org/1999/xlink" x="0px" y="0px"
	 viewBox="0 0 400 400" style="enable-background:new 0 0 400 400;" xml:space="preserve">
<style type="text/css">
	.st0{fill-rule:evenodd;clip-rule:evenodd;}
	.st1{fill-rule:evenodd;clip-rule:evenodd;fill:none;stroke:#000000;stroke-width:3;stroke-miterlimit:10;}
</style>
<g>
	<path class="st0" d="M246.4,66.6c12.4-0.3,31.3-2.8,28.3,12.2c-1.3,6.3-4.8,11-3.4,20h2.2c36.3-18.4,76.1,13.6,53.7,50.5
		c-5.7,9.5-15.3,16.7-27.7,19.4c-8.6,1.8-19.7-0.9-25.4,3.4c-17.7,12.8-23.5,34.4-34.9,53.7c-6.6,11.2-14.6,21.1-22.2,31
		c-5,6.5-9.1,13.2-17.2,16.6c-34.7-11.3-43.5,1.4-62.1,20c-6.8,6.6-13.7,13.3-20.5,20c-4.9,6.1-12,17.6-20.5,19.4
		c-7.3-6.3-28.3-22.8-30.4-32.2c9.9-11.6,40.1-34,44.4-46.5c5.4-15.9-12-21.7-7.2-37.7c2.2-7.4,12.8-13.3,18.8-17.2
		c-0.3-1.3-0.8-2.6-1.1-3.9c-8.2-2.3-22-1.4-24.9-9.5c-3.5-8,5.8-22.1,9.5-26.1c9.7-1.1,25.3-1.8,28.3,6.1c3,7.9-4.7,15.1-2.2,24.9
		h0.5c7.5-0.9,32.8-18.3,36-23.8c-4.7-5.4-19-4.3-24.9-8.3c-2.7-8.9,2.2-25.8,8.9-28.8c2.4-1.4,6.6-1.1,10.5-1.1
		c34.9,0,9,16.2,16.1,31.6h0.5c8-2.5,30.7-17.2,35.4-23.3c-4.6-9.1-23.1-1.6-27.2-12.2c-2.3-5.1,1.3-8.7,2.7-11.6
		c2.4-4.9,1.7-11,6.1-13.8c7.6-5,27.6-2.3,30.4,4.5c2.4,9.8-7,16.4-1.6,25.4h0.5c12-3.4,26.1-15,34.9-22.7v-1.6
		c-5.4-3.3-17.1-2.3-22.7-6.1C227.3,91.5,241.1,72.2,246.4,66.6L246.4,66.6z"/>
	<circle class="st1" cx="200" cy="200" r="190"/>
</g>
</svg>
