<?xml version="1.0" encoding="utf-8"?>
<!-- Generator: Adobe Illustrator 27.0.1, SVG Export Plug-In . SVG Version: 6.00 Build 0)  -->
<svg version="1.1"
	 id="svg2" xmlns:svg="http://www.w3.org/2000/svg" xmlns:cc="http://creativecommons.org/ns#" xmlns:dc="http://purl.org/dc/elements/1.1/" xmlns:rdf="http://www.w3.org/1999/02/22-rdf-syntax-ns#"
	 xmlns="http://www.w3.org/2000/svg" xmlns:xlink="http://www.w3.org/1999/xlink" x="0px" y="0px" viewBox="0 0 400 400"
	 style="enable-background:new 0 0 400 400;" xml:space="preserve">
<style type="text/css">
	.st0{fill:none;stroke:#000000;stroke-width:3;}
</style>
<path id="path26" d="M207.7,54.3c-11.1-0.3-24.1,26.2-23.6,49.8c0.1,7.2,2.4,21.8,5.7,40.1c-20.9,21.6-45.1,43.8-45.1,72.9
	c-0.3,26.7,16,60.7,54.7,60.3c5.9,0,11.3-0.8,16-2c3.5,19.4,5.9,34.7,5.9,41.8c0.1,27.9-36.5,30.6-38.2,14.6
	c7.7-0.3,13.9-6.4,13.9-14c0-7.7-6.4-14.1-14.4-14.1c-4.4,0-8.3,1.9-10.9,4.9c-0.1,0.1-0.1,0.1-0.2,0.2c-0.6,0.6-1.1,1.4-1.6,2.2
	c-1.6,2.8-2.7,6.7-2.7,12.4c0,23.3,59,38.4,59-7.7c0.1-6.2-2.6-21.9-6.4-41.7c42.1-15.2,31.5-77.7-7.2-78c-3,0-5.9,0.4-8.7,1.1
	c-2.2-10.6-4.3-20.9-6.2-30.4c14.7-14.4,27.6-33.2,27.3-67.6C224.7,74.4,216.5,54.6,207.7,54.3z M210.3,78.2c5-0.5,9,4.2,9,14.4
	c0.4,17.6-11.9,33-26.6,48.5c-1.4-8.5-2.3-15.3-2.4-19.4C190.7,94.2,202,79,210.3,78.2z M194.5,169.5c1.8,9.2,3.7,18.9,5.7,28.7
	c-25.6,9.1-37.9,44.9-1.6,60.9c-22.2-18.9-11.3-41.2,4.7-45.1c4,20.1,7.9,39.8,11.1,57c-4.3,1.5-9.3,2.4-15.2,2.4
	c-14.7,0-44-9.3-44-44.7C155.3,199.1,175.8,187.1,194.5,169.5z M207,213.4c0.6,0,1.3,0,2,0c26.7,0,36.8,42.4,9.6,55.9
	C215.2,252.3,211.1,232.8,207,213.4z"/>
<circle class="st0" cx="200" cy="200" r="194"/>
</svg>
