<?xml version="1.0" encoding="utf-8"?>
<!-- Generator: Adobe Illustrator 27.0.1, SVG Export Plug-In . SVG Version: 6.00 Build 0)  -->
<svg version="1.1" id="Calque_1" xmlns="http://www.w3.org/2000/svg" xmlns:xlink="http://www.w3.org/1999/xlink" x="0px" y="0px"
	 viewBox="0 0 400 400" style="enable-background:new 0 0 400 400;" xml:space="preserve">
<style type="text/css">
	.st0{fill:#DEDEDE;}
	.st1{fill:none;stroke:#DEDEDE;stroke-width:3;stroke-miterlimit:10;}
</style>
<g id="Layer_34">
	<path class="st0" d="M217.6,295.8c-1.7,0-3.5-0.5-5-1.3l-87.2-51.6c-2.4-1.4-3.7-3.6-3.7-6.1v-73.7c0-2.4,1.4-4.7,3.7-6.1
		l87.2-51.6c2.6-1.4,5.9-1.7,8.7-0.5c3,1.2,4.9,3.7,5,6.5v176.9c0,2.7-1.8,5.3-4.7,6.5C220.3,295.5,218.9,295.8,217.6,295.8z
		 M139,233l69.7,41.3V125.7L139,167V233z"/>
	<path class="st0" d="M130.3,244.3H95.4c-14.4,0-26.2-9.9-26.2-22.1v-44.2c0-12.2,11.7-22.1,26.2-22.1h34.9c4.8,0,8.7,3.3,8.7,7.4
		v73.7C139,240.9,135.2,244.3,130.3,244.3z M95.5,170.5c-4.8,0-8.7,3.3-8.7,7.4v44.2c0,4.1,3.9,7.4,8.7,7.4h26.2v-59H95.5z"/>
	<path class="st0" d="M235.8,215.8c4.9-4,7.8-9.6,7.8-15.8c0-5.8-2.7-11.5-7.7-15.6l12.4-10.5c17.1,14.3,17.1,37.7,0.1,52.1"/>
	<path class="st0" d="M291.5,269.9c-2.4,0-4.6-0.8-6.2-2.1c-3.4-2.9-3.4-7.5-0.1-10.4c0,0,0,0,0.1-0.1c37.3-31.6,37.3-82.9,0-114.5
		c-3.4-2.9-3.4-7.6,0-10.5c3.4-2.9,9-2.9,12.4,0c44.2,37.4,44.2,98,0,135.4C296,269.1,293.8,269.9,291.5,269.9z"/>
	<path class="st0" d="M266.8,249c-2.3,0-4.5-0.8-6.1-2.1c-3-3-2.8-7.3,0.5-10c23.8-20.1,23.8-52.8,0-72.9l0,0
		c-3.1-3.1-2.7-7.7,1-10.4c3.3-2.4,8-2.4,11.4,0c30.6,25.9,30.6,67.8,0,93.7C271.6,248.6,269.2,249.2,266.8,249z"/>
</g>
<circle class="st1" cx="200" cy="200.1" r="194"/>
</svg>
